<svg viewBox="0 0 64.457138 90.006821" xmlns="http://www.w3.org/2000/svg">
 <g transform="translate(115.09 -544.5)">
  <path d="m-74.36691,544.50845c-3.2721.13655-6.3717,1.38491-8.0938,4.125l-3.9062,6.21875c-.028.0433-.066.0809-.094.125l-26.4062,42.03125-.3438.5625-.031.6875-1.625,31.65625-.2188,4.59375 4-2.1875 27.8438-15.21875 .5938-.3125 .375-.5625 30.4062-48.375c1.9681-3.13154 1.4088-6.99684-.4062-10.3125-1.8151-3.31569-4.9277-6.42556-8.875-8.90625s-8.0378-3.89644-11.8126-4.09375c-.4718-.0247-.9388-.0508-1.4062-.0312zm.1875,5.125c.2943-.008.609.0141.9375.0312 2.628.13737 6.0557,1.25768 9.375,3.34375s5.7989,4.66039 7.0625,6.96875c1.0669,1.94898 1.2465,3.45045.8437,4.5625-.107-.21996-.1945-.44073-.3124-.65625-1.8151-3.31566-4.8966-6.42558-8.8438-8.90625s-8.069-3.89644-11.8438-4.09375c-.2412-.0126-.4781-.03-.7187-.0312 .7056-.70485 1.8281-1.17196 3.5-1.21875zm-4,6.375c.2943-.008.609-.0172.9375,0 2.6281.13737 6.0557,1.2577 9.375,3.34375s5.7988,4.69161 7.0625,7c1.2209,2.23045 1.3062,3.85243.6563,5l-2.1563,3.46875c-.1602-.35851-.3397-.71259-.5313-1.0625-1.7489-3.1948-4.7532-6.22291-8.625-8.65625s-7.9253-3.84113-11.5624-4.03125c-.4018-.021-.7918-.0116-1.1876,0l2.0938-3.34375h.031l.063-.125c.6569-.93513 1.8731-1.53861 3.8437-1.59375zm-6.0313,8.9375c.3151-.01.6543.0132 1,.0312 2.6059.13624 5.8533,1.15961 9.0626,3.0625l-18.2813,29.09375c-4.7667,2.83797-9.249,2.49184-13.4063,1.59375l-1.7812-.375 20.5625-32.78125c.7499-.36846 1.6971-.59035 2.8437-.625zm11.7188,4.15625c2.87,2.00024 5.0303,4.36028 6.2188,6.53125 .7782,1.42186 1.1403,2.64724 1.125,3.71875l-20.5,32.5625-.7188-.96875c-2.6124-3.35638-4.8647-7.2241-4.375-12.75l18.25-29.09375zm-20.0938,30.125c-.143,6.03979 2.7835,10.36224 5.5938,13.8125l.1562.1875-17.8124,9.71875c-.8799-1.7025-2.3489-2.61527-4.5626-2.84375l1.0313-20.125 .7187.1875c4.3249,1.03505 9.4988,1.80449 14.875-.9375z" fill="#231f20"/>
 </g>
</svg>
